<?xml version="1.0" standalone="no"?>
<!DOCTYPE svg PUBLIC "-//W3C//DTD SVG 20010904//EN"
 "http://www.w3.org/TR/2001/REC-SVG-20010904/DTD/svg10.dtd">
<svg version="1.0" xmlns="http://www.w3.org/2000/svg"
 width="874.000000pt" height="874.000000pt" viewBox="0 0 874.000000 874.000000"
 preserveAspectRatio="xMidYMid meet">
<metadata>
Created by potrace 1.14, written by Peter Selinger 2001-2017
</metadata>
<g transform="translate(0.000000,874.000000) scale(0.100000,-0.100000)"
fill="#000000" stroke="none">
<path d="M4158 6671 c-18 -10 -199 -102 -403 -205 -203 -104 -374 -191 -378
-195 -4 -4 29 -16 75 -26 107 -25 122 -40 115 -112 -3 -30 -10 -60 -15 -66
-10 -14 -55 -124 -59 -147 -21 -106 -25 -180 -12 -229 10 -40 15 -48 26 -40 7
6 20 9 28 5 8 -3 15 -2 15 3 0 5 10 11 21 14 22 6 22 6 -4 37 -15 18 -24 37
-20 46 3 9 0 20 -8 25 -21 12 -22 137 -2 196 9 27 33 75 54 108 20 33 40 70
44 83 8 26 11 27 98 6 66 -16 69 -16 95 3 86 63 262 124 401 138 31 3 67 8 81
10 61 11 -21 -14 -140 -42 -123 -30 -252 -81 -299 -120 -21 -17 -24 -28 -22
-73 1 -30 4 -56 7 -59 3 -3 17 10 32 29 174 224 479 280 705 129 l59 -39 -5
40 c-3 28 0 43 12 53 13 11 131 85 284 177 l28 17 -28 11 c-15 6 -109 36 -208
67 -276 87 -393 124 -472 150 -69 22 -73 23 -105 6z"/>
<path d="M4214 6225 c-125 -27 -237 -102 -307 -208 -29 -44 -61 -118 -60 -137
0 -3 -4 -16 -9 -30 -15 -38 -10 -169 8 -230 23 -78 67 -152 128 -213 227 -227
621 -163 766 123 40 78 53 134 52 221 0 308 -279 536 -578 474z"/>
<path d="M3080 5539 c-52 -6 -91 -12 -151 -24 -104 -20 -270 -91 -366 -156
-134 -91 -262 -220 -339 -344 -17 -27 -15 -26 30 12 88 77 218 155 316 192
146 54 217 66 390 66 182 0 261 -15 409 -75 398 -162 664 -555 665 -985 0
-144 -11 -222 -50 -343 -60 -184 -176 -357 -323 -484 -52 -46 -45 -47 32 -8
300 152 522 432 597 754 29 128 40 289 25 393 -22 147 -45 229 -96 341 -26 58
-95 180 -108 192 -4 3 -18 21 -32 40 -39 51 -127 140 -179 180 -25 19 -47 37
-50 41 -3 3 -39 26 -80 51 -203 121 -468 182 -690 157z"/>
<path d="M5487 5544 c-1 -1 -34 -4 -73 -8 -363 -28 -719 -269 -887 -599 -103
-202 -133 -331 -130 -553 3 -328 154 -640 413 -854 83 -69 213 -149 270 -165
21 -6 20 -3 -10 19 -56 43 -153 149 -202 223 -297 442 -240 1007 138 1378 126
123 289 218 454 265 110 31 149 35 315 34 131 0 163 -4 250 -27 158 -43 295
-116 446 -237 24 -19 39 -28 33 -20 -6 8 -32 43 -56 77 -94 128 -215 237 -353
317 -83 47 -248 112 -314 122 -20 3 -38 7 -42 9 -11 8 -246 25 -252 19z"/>
<path d="M595 3119 c-159 -15 -280 -104 -337 -248 -32 -80 -31 -242 0 -323 63
-158 190 -239 377 -241 58 -1 110 5 146 16 59 17 154 76 154 94 0 6 -20 32
-44 59 -36 40 -46 46 -60 36 -161 -118 -380 -68 -434 99 -44 136 3 273 114
334 45 24 66 29 124 29 71 1 143 -20 177 -51 20 -18 39 -9 88 42 l35 37 -35
30 c-77 67 -187 98 -305 87z"/>
<path d="M1388 3125 c-2 -2 -25 -5 -53 -8 -215 -23 -360 -213 -342 -447 18
-223 166 -360 392 -364 179 -2 303 70 370 217 103 225 5 494 -210 575 -28 10
-152 31 -157 27z m127 -170 c177 -86 178 -396 1 -487 -59 -31 -185 -31 -243 0
-165 86 -180 366 -26 472 75 52 181 57 268 15z"/>
<path d="M4151 3109 c-110 -38 -192 -114 -236 -219 -28 -67 -37 -115 -36 -199
2 -227 149 -374 385 -386 125 -5 228 29 304 102 l38 38 0 165 -1 165 -167 1
c-135 1 -168 -1 -169 -12 0 -8 -1 -27 -1 -44 0 -85 -6 -79 75 -78 141 0 127 7
127 -66 0 -62 -2 -66 -32 -90 -85 -63 -246 -54 -328 20 -118 107 -111 320 15
426 49 41 97 57 172 55 57 -2 81 -8 136 -36 l66 -34 41 43 c22 23 40 45 40 50
0 15 -83 70 -140 92 -76 29 -214 33 -289 7z"/>
<path d="M5690 3115 c-67 -18 -114 -43 -165 -87 -163 -143 -180 -445 -34 -603
142 -154 430 -163 590 -18 l39 36 -2 166 -3 166 -167 1 -168 2 0 -69 0 -68 95
1 c52 1 98 -1 101 -4 3 -4 6 -33 6 -66 1 -68 -5 -78 -72 -107 -90 -40 -225
-18 -298 49 -98 89 -95 300 6 401 89 90 252 98 358 19 l30 -23 47 48 47 49
-31 26 c-96 81 -253 115 -379 81z"/>
<path d="M1902 2714 l0 -394 277 0 277 0 -1 68 0 67 -200 5 -200 5 -2 305 c0
168 -2 313 -2 322 -1 15 -12 17 -75 17 l-74 0 0 -395z"/>
<path d="M2563 3093 c-6 -14 -9 -643 -4 -755 1 -17 21 -18 276 -18 l275 0 0
70 0 70 -200 0 c-153 0 -200 3 -200 13 -1 6 -1 152 -1 323 l0 311 -69 2 c-57
1 -70 -1 -77 -16z"/>
<path d="M3210 2715 l0 -395 294 0 294 0 0 75 0 75 -219 0 -219 0 -1 33 c-2
62 1 130 6 135 2 3 97 5 210 4 148 0 205 3 206 11 4 79 2 120 -5 125 -5 3
-102 5 -215 5 l-206 0 1 86 1 86 221 3 220 2 -1 73 -2 72 -292 2 -293 2 0
-394z"/>
<path d="M4726 3101 c-2 -3 -3 -180 -4 -393 l0 -388 294 0 294 0 0 75 0 75
-220 0 -220 0 0 85 0 85 28 1 c15 0 110 1 212 2 l185 2 1 60 c0 33 -1 65 -3
70 -2 6 -81 10 -213 9 l-210 -1 0 88 0 89 220 0 220 0 0 75 0 74 -290 0 c-160
-1 -292 -4 -294 -8z"/>
<path d="M6150 3100 c0 -6 67 -111 149 -234 l149 -223 0 -159 -1 -159 75 -3
75 -3 0 164 1 163 72 104 c163 235 240 349 240 354 0 4 -41 5 -91 4 l-91 -3
-102 -157 c-61 -95 -105 -153 -110 -148 -5 5 -50 76 -100 157 l-91 148 -87 3
c-55 1 -88 -2 -88 -8z"/>
<path d="M7215 3047 c-15 -34 -59 -132 -97 -217 -39 -85 -78 -173 -88 -195
-10 -22 -39 -87 -64 -145 -41 -91 -58 -130 -74 -162 -2 -5 35 -8 82 -8 51 0
86 4 86 10 0 5 14 39 31 75 l30 65 203 0 202 0 33 -75 33 -75 85 0 c46 0 82 3
80 8 -9 14 -83 177 -217 478 l-135 301 -81 1 -81 2 -28 -63z m169 -252 c31
-71 61 -138 66 -147 20 -36 12 -38 -129 -38 l-140 0 61 138 c33 75 64 148 69
161 5 13 11 22 13 20 2 -2 29 -62 60 -134z"/>
<path d="M7836 3101 c-2 -3 -4 -180 -4 -393 l0 -388 74 0 c74 0 74 0 75 28 0
15 1 133 1 262 0 220 1 233 17 214 9 -12 101 -130 204 -263 l189 -242 46 3 47
3 0 390 0 390 -75 0 -75 0 0 -238 0 -239 -25 30 c-30 35 -42 49 -102 127 -25
33 -54 70 -64 82 -11 12 -57 71 -104 132 l-85 111 -58 -2 c-32 0 -59 -4 -61
-7z"/>
</g>
</svg>
